<svg xmlns="http://www.w3.org/2000/svg" fill="none" viewBox="0 0 26 26"><path fill="url(#a)" d="M18.494 3.968a2.508 2.508 0 0 0-2.407-1.801h-.732c-1.21 0-2.248.864-2.466 2.055l-1.254 6.832.311-1.065a2.508 2.508 0 0 1 2.407-1.804h4.254l1.785.695 1.72-.695h-.503a2.508 2.508 0 0 1-2.406-1.8l-.71-2.417Z"/><path fill="url(#b)" d="M7.762 22.022a2.508 2.508 0 0 0 2.41 1.811h1.554a2.508 2.508 0 0 0 2.507-2.443l.17-6.588-.355 1.21a2.508 2.508 0 0 1-2.406 1.803h-4.29l-1.53-.83-1.655.83h.494c1.116 0 2.099.738 2.409 1.811l.692 2.396Z"/><path fill="url(#c)" d="M15.979 2.167H7.29c-2.482 0-3.972 3.28-4.965 6.561-1.176 3.887-2.715 9.085 1.738 9.085h3.751a2.508 2.508 0 0 0 2.413-1.82 1131.53 1131.53 0 0 1 2.694-9.292c.456-1.54.836-2.862 1.42-3.686a1.96 1.96 0 0 1 1.637-.848Z"/><path fill="url(#d)" d="M15.979 2.167H7.29c-2.482 0-3.972 3.28-4.965 6.561-1.176 3.887-2.715 9.085 1.738 9.085h3.751a2.508 2.508 0 0 0 2.413-1.82 1131.53 1131.53 0 0 1 2.694-9.292c.456-1.54.836-2.862 1.42-3.686a1.96 1.96 0 0 1 1.637-.848Z"/><path fill="url(#e)" d="M10.02 23.833h8.688c2.482 0 3.971-3.28 4.964-6.562 1.176-3.888 2.716-9.087-1.738-9.087h-3.75a2.508 2.508 0 0 0-2.414 1.82c-.652 2.282-1.795 6.263-2.693 9.294-.457 1.54-.837 2.863-1.42 3.687a1.96 1.96 0 0 1-1.637.848Z"/><path fill="url(#f)" d="M10.02 23.833h8.688c2.482 0 3.971-3.28 4.964-6.562 1.176-3.888 2.716-9.087-1.738-9.087h-3.75a2.508 2.508 0 0 0-2.414 1.82c-.652 2.282-1.795 6.263-2.693 9.294-.457 1.54-.837 2.863-1.42 3.687a1.96 1.96 0 0 1-1.637.848Z"/><defs><radialGradient id="a" cx="0" cy="0" r="1" gradientTransform="rotate(-129.304 12.925 .68) scale(9.37261 8.81326)" gradientUnits="userSpaceOnUse"><stop offset=".096" stop-color="#00AEFF"/><stop offset=".773" stop-color="#2253CE"/><stop offset="1" stop-color="#0736C4"/></radialGradient><radialGradient id="b" cx="0" cy="0" r="1" gradientTransform="rotate(51.84 -15.276 15.085) scale(8.66188 8.40225)" gradientUnits="userSpaceOnUse"><stop stop-color="#FFB657"/><stop offset=".634" stop-color="#FF5F3D"/><stop offset=".923" stop-color="#C02B3C"/></radialGradient><radialGradient id="e" cx="0" cy="0" r="1" gradientTransform="matrix(-6.86351 19.62766 -23.51334 -8.22228 22.38 6.652)" gradientUnits="userSpaceOnUse"><stop offset=".066" stop-color="#8C48FF"/><stop offset=".5" stop-color="#F2598A"/><stop offset=".896" stop-color="#FFB152"/></radialGradient><linearGradient id="c" x1="6.771" x2="8.01" y1="4.062" y2="18.403" gradientUnits="userSpaceOnUse"><stop offset=".156" stop-color="#0D91E1"/><stop offset=".487" stop-color="#52B471"/><stop offset=".652" stop-color="#98BD42"/><stop offset=".937" stop-color="#FFC800"/></linearGradient><linearGradient id="d" x1="7.854" x2="8.531" y1="2.167" y2="17.813" gradientUnits="userSpaceOnUse"><stop stop-color="#3DCBFF"/><stop offset=".247" stop-color="#0588F7" stop-opacity="0"/></linearGradient><linearGradient id="f" x1="23.067" x2="23.058" y1="7.229" y2="11.491" gradientUnits="userSpaceOnUse"><stop offset=".058" stop-color="#F8ADFA"/><stop offset=".708" stop-color="#A86EDD" stop-opacity="0"/></linearGradient></defs></svg>